<mxfile host="app.diagrams.net" modified="2024-03-19T19:55:07.105Z" agent="Mozilla/5.0 (Macintosh; Intel Mac OS X 10_15_7) AppleWebKit/537.36 (KHTML, like Gecko) Chrome/122.0.0.0 Safari/537.36" version="24.0.7" etag="AKMdrAzPQ8SXOe9bCM8E" type="github">
  <diagram name="PaginÄƒ-1" id="KHKd_p_Uuqri5DII7-df">
    <mxGraphModel>
      <root>
        <mxCell id="0" />
        <mxCell id="1" parent="0" />
      </root>
    </mxGraphModel>
  </diagram>
</mxfile>
